<mxfile host="app.diagrams.net" modified="2021-05-21T14:56:31.711Z" agent="5.0 (Windows NT 10.0; Win64; x64) AppleWebKit/537.36 (KHTML, like Gecko) Chrome/90.0.4430.212 Safari/537.36" etag="mIQ6EszboryceiWnOqJl" version="14.6.13" type="github">
  <diagram id="WlbF3g8zMSRiCCVfWd8O" name="Concept">
    <mxGraphModel dx="1343" dy="-128" grid="1" gridSize="10" guides="1" tooltips="1" connect="1" arrows="1" fold="1" page="1" pageScale="1" pageWidth="1169" pageHeight="827" math="0" shadow="0">
      <root>
        <mxCell id="0" />
        <mxCell id="1" parent="0" />
        <mxCell id="w_5GZXR-7Djm66WTPlX2-159" value="LocalTelemetryServer" style="verticalLabelPosition=bottom;verticalAlign=top;html=1;shape=mxgraph.basic.rect;fillColor2=none;strokeWidth=3;size=20;indent=5;dashed=1;fillColor=#dae8fc;strokeColor=#6c8ebf;opacity=30;" vertex="1" parent="1">
          <mxGeometry x="67.86999999999999" y="1067" width="420" height="320" as="geometry" />
        </mxCell>
        <mxCell id="w_5GZXR-7Djm66WTPlX2-152" style="edgeStyle=orthogonalEdgeStyle;rounded=0;orthogonalLoop=1;jettySize=auto;html=1;" edge="1" parent="1" source="w_5GZXR-7Djm66WTPlX2-140" target="w_5GZXR-7Djm66WTPlX2-141">
          <mxGeometry relative="1" as="geometry" />
        </mxCell>
        <mxCell id="w_5GZXR-7Djm66WTPlX2-140" value="Connectors" style="verticalLabelPosition=top;aspect=fixed;html=1;verticalAlign=bottom;strokeColor=none;align=center;outlineConnect=0;shape=mxgraph.citrix.web_server;gradientColor=none;opacity=30;labelPosition=center;" vertex="1" parent="1">
          <mxGeometry x="206.85" y="1192" width="34" height="40" as="geometry" />
        </mxCell>
        <mxCell id="w_5GZXR-7Djm66WTPlX2-153" style="edgeStyle=orthogonalEdgeStyle;rounded=0;orthogonalLoop=1;jettySize=auto;html=1;" edge="1" parent="1" source="w_5GZXR-7Djm66WTPlX2-141" target="w_5GZXR-7Djm66WTPlX2-143">
          <mxGeometry relative="1" as="geometry" />
        </mxCell>
        <mxCell id="w_5GZXR-7Djm66WTPlX2-141" value="Parcing" style="verticalLabelPosition=bottom;aspect=fixed;html=1;verticalAlign=top;strokeColor=none;align=center;outlineConnect=0;shape=mxgraph.citrix.process;opacity=30;" vertex="1" parent="1">
          <mxGeometry x="301.68000000000006" y="1192" width="33.55" height="40" as="geometry" />
        </mxCell>
        <mxCell id="w_5GZXR-7Djm66WTPlX2-150" style="edgeStyle=orthogonalEdgeStyle;rounded=0;orthogonalLoop=1;jettySize=auto;html=1;" edge="1" parent="1" source="w_5GZXR-7Djm66WTPlX2-142" target="w_5GZXR-7Djm66WTPlX2-140">
          <mxGeometry relative="1" as="geometry">
            <Array as="points">
              <mxPoint x="162.16" y="1212" />
            </Array>
          </mxGeometry>
        </mxCell>
        <mxCell id="w_5GZXR-7Djm66WTPlX2-163" style="edgeStyle=orthogonalEdgeStyle;rounded=0;orthogonalLoop=1;jettySize=auto;html=1;startArrow=classic;startFill=1;" edge="1" parent="1" source="w_5GZXR-7Djm66WTPlX2-142" target="w_5GZXR-7Djm66WTPlX2-138">
          <mxGeometry relative="1" as="geometry">
            <mxPoint x="108.16" y="1010" as="targetPoint" />
            <Array as="points">
              <mxPoint x="108" y="1107" />
            </Array>
          </mxGeometry>
        </mxCell>
        <mxCell id="w_5GZXR-7Djm66WTPlX2-169" style="edgeStyle=orthogonalEdgeStyle;rounded=0;orthogonalLoop=1;jettySize=auto;html=1;entryX=0;entryY=0.5;entryDx=0;entryDy=0;startArrow=none;startFill=0;" edge="1" parent="1" source="w_5GZXR-7Djm66WTPlX2-142" target="w_5GZXR-7Djm66WTPlX2-143">
          <mxGeometry relative="1" as="geometry">
            <Array as="points">
              <mxPoint x="270" y="1112" />
              <mxPoint x="270" y="1112" />
            </Array>
          </mxGeometry>
        </mxCell>
        <mxCell id="w_5GZXR-7Djm66WTPlX2-174" value="RAWData" style="edgeLabel;html=1;align=center;verticalAlign=middle;resizable=0;points=[];" vertex="1" connectable="0" parent="w_5GZXR-7Djm66WTPlX2-169">
          <mxGeometry x="0.1358" y="-2" relative="1" as="geometry">
            <mxPoint x="-1" as="offset" />
          </mxGeometry>
        </mxCell>
        <mxCell id="w_5GZXR-7Djm66WTPlX2-142" value="SensorRequest" style="verticalLabelPosition=top;aspect=fixed;html=1;verticalAlign=bottom;strokeColor=none;align=center;outlineConnect=0;shape=mxgraph.citrix.process;opacity=30;labelPosition=center;" vertex="1" parent="1">
          <mxGeometry x="144.16" y="1092" width="35.23" height="42" as="geometry" />
        </mxCell>
        <mxCell id="w_5GZXR-7Djm66WTPlX2-162" style="edgeStyle=orthogonalEdgeStyle;rounded=0;orthogonalLoop=1;jettySize=auto;html=1;" edge="1" parent="1" source="w_5GZXR-7Djm66WTPlX2-143" target="w_5GZXR-7Djm66WTPlX2-145">
          <mxGeometry relative="1" as="geometry">
            <Array as="points">
              <mxPoint x="315" y="890" />
              <mxPoint x="585" y="890" />
            </Array>
          </mxGeometry>
        </mxCell>
        <mxCell id="w_5GZXR-7Djm66WTPlX2-143" value="" style="aspect=fixed;perimeter=ellipsePerimeter;html=1;align=center;shadow=0;dashed=0;fontColor=#4277BB;labelBackgroundColor=#ffffff;fontSize=12;spacingTop=3;image;image=img/lib/ibm/blockchain/message_bus.svg;strokeWidth=5;gradientColor=none;opacity=30;" vertex="1" parent="1">
          <mxGeometry x="298.61" y="1092" width="40" height="40" as="geometry" />
        </mxCell>
        <mxCell id="w_5GZXR-7Djm66WTPlX2-183" style="edgeStyle=orthogonalEdgeStyle;rounded=0;orthogonalLoop=1;jettySize=auto;html=1;startArrow=none;startFill=0;" edge="1" parent="1" source="w_5GZXR-7Djm66WTPlX2-145" target="w_5GZXR-7Djm66WTPlX2-147">
          <mxGeometry relative="1" as="geometry">
            <Array as="points">
              <mxPoint x="436" y="970" />
              <mxPoint x="436" y="970" />
            </Array>
          </mxGeometry>
        </mxCell>
        <mxCell id="w_5GZXR-7Djm66WTPlX2-197" style="edgeStyle=orthogonalEdgeStyle;rounded=0;orthogonalLoop=1;jettySize=auto;html=1;startArrow=none;startFill=0;" edge="1" parent="1" source="w_5GZXR-7Djm66WTPlX2-145" target="w_5GZXR-7Djm66WTPlX2-166">
          <mxGeometry relative="1" as="geometry">
            <Array as="points">
              <mxPoint x="670" y="990" />
              <mxPoint x="794" y="990" />
            </Array>
          </mxGeometry>
        </mxCell>
        <mxCell id="w_5GZXR-7Djm66WTPlX2-201" style="edgeStyle=orthogonalEdgeStyle;rounded=0;orthogonalLoop=1;jettySize=auto;html=1;startArrow=none;startFill=0;" edge="1" parent="1" source="w_5GZXR-7Djm66WTPlX2-145" target="w_5GZXR-7Djm66WTPlX2-198">
          <mxGeometry relative="1" as="geometry">
            <Array as="points">
              <mxPoint x="805" y="890" />
              <mxPoint x="1105" y="890" />
            </Array>
          </mxGeometry>
        </mxCell>
        <mxCell id="w_5GZXR-7Djm66WTPlX2-216" value="RawData + History Data" style="edgeLabel;html=1;align=center;verticalAlign=middle;resizable=0;points=[];" vertex="1" connectable="0" parent="w_5GZXR-7Djm66WTPlX2-201">
          <mxGeometry x="-0.2678" y="4" relative="1" as="geometry">
            <mxPoint as="offset" />
          </mxGeometry>
        </mxCell>
        <mxCell id="w_5GZXR-7Djm66WTPlX2-145" value="Kafka" style="html=1;outlineConnect=0;fillColor=#CCCCCC;strokeColor=#6881B3;gradientColor=none;gradientDirection=north;strokeWidth=2;shape=mxgraph.networks.bus;gradientColor=none;gradientDirection=north;fontColor=#ffffff;perimeter=backbonePerimeter;backboneSize=20;" vertex="1" parent="1">
          <mxGeometry x="365" y="946" width="610" height="20" as="geometry" />
        </mxCell>
        <mxCell id="w_5GZXR-7Djm66WTPlX2-155" style="edgeStyle=orthogonalEdgeStyle;rounded=0;orthogonalLoop=1;jettySize=auto;html=1;" edge="1" parent="1" source="w_5GZXR-7Djm66WTPlX2-146" target="w_5GZXR-7Djm66WTPlX2-148">
          <mxGeometry relative="1" as="geometry" />
        </mxCell>
        <mxCell id="w_5GZXR-7Djm66WTPlX2-193" style="edgeStyle=orthogonalEdgeStyle;rounded=0;orthogonalLoop=1;jettySize=auto;html=1;startArrow=none;startFill=0;" edge="1" parent="1" source="w_5GZXR-7Djm66WTPlX2-146" target="w_5GZXR-7Djm66WTPlX2-172">
          <mxGeometry relative="1" as="geometry">
            <Array as="points">
              <mxPoint x="468.16" y="1311" />
              <mxPoint x="468.16" y="1194" />
            </Array>
          </mxGeometry>
        </mxCell>
        <mxCell id="w_5GZXR-7Djm66WTPlX2-146" value="Metadata&lt;br&gt;Manager" style="verticalLabelPosition=bottom;aspect=fixed;html=1;verticalAlign=top;strokeColor=none;align=center;outlineConnect=0;shape=mxgraph.citrix.process;opacity=30;" vertex="1" parent="1">
          <mxGeometry x="344.61000000000007" y="1291" width="33.55" height="40" as="geometry" />
        </mxCell>
        <mxCell id="w_5GZXR-7Djm66WTPlX2-156" style="edgeStyle=orthogonalEdgeStyle;rounded=0;orthogonalLoop=1;jettySize=auto;html=1;" edge="1" parent="1" target="w_5GZXR-7Djm66WTPlX2-146">
          <mxGeometry relative="1" as="geometry">
            <mxPoint x="438.16" y="1119" as="sourcePoint" />
            <Array as="points">
              <mxPoint x="438.16" y="1119" />
              <mxPoint x="438.16" y="1247" />
              <mxPoint x="361.16" y="1247" />
            </Array>
          </mxGeometry>
        </mxCell>
        <mxCell id="w_5GZXR-7Djm66WTPlX2-207" value="MatadataUpdateEvent" style="edgeLabel;html=1;align=center;verticalAlign=middle;resizable=0;points=[];fontColor=#0000FF;" vertex="1" connectable="0" parent="w_5GZXR-7Djm66WTPlX2-156">
          <mxGeometry x="0.312" y="-2" relative="1" as="geometry">
            <mxPoint as="offset" />
          </mxGeometry>
        </mxCell>
        <mxCell id="w_5GZXR-7Djm66WTPlX2-147" value="Local Telemetry&amp;nbsp;&lt;br&gt;Kafka Consumer" style="fillColor=#c0f5a9;dashed=0;outlineConnect=0;strokeWidth=2;html=1;align=center;fontSize=8;verticalLabelPosition=bottom;verticalAlign=top;shape=mxgraph.eip.event_driven_consumer;opacity=30;" vertex="1" parent="1">
          <mxGeometry x="384.16" y="1089" width="70" height="30" as="geometry" />
        </mxCell>
        <mxCell id="w_5GZXR-7Djm66WTPlX2-219" style="edgeStyle=orthogonalEdgeStyle;rounded=0;orthogonalLoop=1;jettySize=auto;html=1;fontColor=#0000CC;startArrow=none;startFill=0;" edge="1" parent="1" source="w_5GZXR-7Djm66WTPlX2-148" target="w_5GZXR-7Djm66WTPlX2-140">
          <mxGeometry relative="1" as="geometry" />
        </mxCell>
        <mxCell id="w_5GZXR-7Djm66WTPlX2-148" value="RedisMetadaCache" style="aspect=fixed;html=1;points=[];align=center;image;fontSize=12;image=img/lib/mscae/Cache_Redis_Product.svg;" vertex="1" parent="1">
          <mxGeometry x="198.85000000000002" y="1290" width="50" height="42" as="geometry" />
        </mxCell>
        <mxCell id="w_5GZXR-7Djm66WTPlX2-149" value="" style="group" vertex="1" connectable="0" parent="1">
          <mxGeometry x="14.999999999999986" y="900" width="180" height="83" as="geometry" />
        </mxCell>
        <mxCell id="w_5GZXR-7Djm66WTPlX2-133" value="" style="group;labelPosition=center;verticalLabelPosition=bottom;align=center;verticalAlign=top;textDirection=ltr;" vertex="1" connectable="0" parent="w_5GZXR-7Djm66WTPlX2-149">
          <mxGeometry x="35.00000000000001" y="30" width="110" height="53" as="geometry" />
        </mxCell>
        <mxCell id="w_5GZXR-7Djm66WTPlX2-134" value="" style="aspect=fixed;pointerEvents=1;shadow=0;dashed=0;html=1;strokeColor=none;labelPosition=center;verticalLabelPosition=bottom;verticalAlign=top;align=center;fillColor=#00188D;shape=mxgraph.mscae.enterprise.device;opacity=30;" vertex="1" parent="w_5GZXR-7Djm66WTPlX2-133">
          <mxGeometry x="12.055561208914197" y="4.818181818181818" width="37.061454545454545" height="19.272727272727273" as="geometry" />
        </mxCell>
        <mxCell id="w_5GZXR-7Djm66WTPlX2-135" value="" style="aspect=fixed;pointerEvents=1;shadow=0;dashed=0;html=1;strokeColor=none;labelPosition=center;verticalLabelPosition=bottom;verticalAlign=top;align=center;fillColor=#00188D;shape=mxgraph.mscae.enterprise.device;opacity=30;" vertex="1" parent="w_5GZXR-7Djm66WTPlX2-133">
          <mxGeometry x="12.055561208914197" y="24.09090909090909" width="37.061454545454545" height="19.272727272727273" as="geometry" />
        </mxCell>
        <mxCell id="w_5GZXR-7Djm66WTPlX2-136" value="" style="aspect=fixed;pointerEvents=1;shadow=0;dashed=0;html=1;strokeColor=none;labelPosition=center;verticalLabelPosition=bottom;verticalAlign=top;align=center;fillColor=#00188D;shape=mxgraph.mscae.enterprise.device;opacity=30;" vertex="1" parent="w_5GZXR-7Djm66WTPlX2-133">
          <mxGeometry x="55.10633967640172" y="24.09090909090909" width="37.061454545454545" height="19.272727272727273" as="geometry" />
        </mxCell>
        <mxCell id="w_5GZXR-7Djm66WTPlX2-137" value="" style="aspect=fixed;pointerEvents=1;shadow=0;dashed=0;html=1;strokeColor=none;labelPosition=center;verticalLabelPosition=bottom;verticalAlign=top;align=center;fillColor=#00188D;shape=mxgraph.mscae.enterprise.device;opacity=30;" vertex="1" parent="w_5GZXR-7Djm66WTPlX2-133">
          <mxGeometry x="55.10633967640172" y="4.818181818181818" width="37.061454545454545" height="19.272727272727273" as="geometry" />
        </mxCell>
        <mxCell id="w_5GZXR-7Djm66WTPlX2-138" value="" style="verticalLabelPosition=bottom;verticalAlign=top;html=1;shape=mxgraph.basic.rect;fillColor2=none;strokeWidth=1;size=20;indent=5;gradientColor=none;opacity=30;" vertex="1" parent="w_5GZXR-7Djm66WTPlX2-133">
          <mxGeometry width="110.00000000000001" height="53" as="geometry" />
        </mxCell>
        <mxCell id="w_5GZXR-7Djm66WTPlX2-139" value="Датчики / ПЛК / Контроллеры&lt;br&gt;/ SCADA - системы" style="text;html=1;align=center;verticalAlign=middle;resizable=0;points=[];autosize=1;fontSize=12;" vertex="1" parent="w_5GZXR-7Djm66WTPlX2-149">
          <mxGeometry width="180" height="30" as="geometry" />
        </mxCell>
        <mxCell id="w_5GZXR-7Djm66WTPlX2-164" value="" style="verticalLabelPosition=bottom;verticalAlign=top;html=1;shape=mxgraph.basic.rect;fillColor2=none;strokeWidth=3;size=20;indent=5;dashed=1;opacity=30;fillColor=#d5e8d4;strokeColor=#82b366;" vertex="1" parent="1">
          <mxGeometry x="495" y="1001" width="660" height="480" as="geometry" />
        </mxCell>
        <mxCell id="w_5GZXR-7Djm66WTPlX2-185" style="edgeStyle=orthogonalEdgeStyle;rounded=0;orthogonalLoop=1;jettySize=auto;html=1;startArrow=none;startFill=0;" edge="1" parent="1" source="w_5GZXR-7Djm66WTPlX2-166" target="w_5GZXR-7Djm66WTPlX2-171">
          <mxGeometry relative="1" as="geometry" />
        </mxCell>
        <mxCell id="w_5GZXR-7Djm66WTPlX2-215" value="" style="edgeStyle=orthogonalEdgeStyle;rounded=0;orthogonalLoop=1;jettySize=auto;html=1;startArrow=none;startFill=0;" edge="1" parent="1" source="w_5GZXR-7Djm66WTPlX2-166" target="w_5GZXR-7Djm66WTPlX2-171">
          <mxGeometry relative="1" as="geometry" />
        </mxCell>
        <mxCell id="w_5GZXR-7Djm66WTPlX2-166" value="SmartTwin &lt;br&gt;Kafka Consumer" style="fillColor=#c0f5a9;dashed=0;outlineConnect=0;strokeWidth=2;html=1;align=center;fontSize=8;verticalLabelPosition=bottom;verticalAlign=top;shape=mxgraph.eip.event_driven_consumer;opacity=30;" vertex="1" parent="1">
          <mxGeometry x="762.36" y="1089" width="70" height="30" as="geometry" />
        </mxCell>
        <mxCell id="w_5GZXR-7Djm66WTPlX2-188" style="edgeStyle=orthogonalEdgeStyle;rounded=0;orthogonalLoop=1;jettySize=auto;html=1;startArrow=none;startFill=0;" edge="1" parent="1" source="w_5GZXR-7Djm66WTPlX2-168" target="w_5GZXR-7Djm66WTPlX2-170">
          <mxGeometry relative="1" as="geometry" />
        </mxCell>
        <mxCell id="w_5GZXR-7Djm66WTPlX2-191" style="edgeStyle=orthogonalEdgeStyle;rounded=0;orthogonalLoop=1;jettySize=auto;html=1;startArrow=none;startFill=0;" edge="1" parent="1" source="w_5GZXR-7Djm66WTPlX2-168" target="w_5GZXR-7Djm66WTPlX2-190">
          <mxGeometry relative="1" as="geometry" />
        </mxCell>
        <mxCell id="w_5GZXR-7Djm66WTPlX2-194" style="edgeStyle=orthogonalEdgeStyle;rounded=0;orthogonalLoop=1;jettySize=auto;html=1;startArrow=none;startFill=0;" edge="1" parent="1" source="w_5GZXR-7Djm66WTPlX2-168" target="w_5GZXR-7Djm66WTPlX2-192">
          <mxGeometry relative="1" as="geometry" />
        </mxCell>
        <mxCell id="w_5GZXR-7Djm66WTPlX2-195" value="History Data" style="edgeLabel;html=1;align=center;verticalAlign=middle;resizable=0;points=[];" vertex="1" connectable="0" parent="w_5GZXR-7Djm66WTPlX2-194">
          <mxGeometry x="0.1768" y="2" relative="1" as="geometry">
            <mxPoint as="offset" />
          </mxGeometry>
        </mxCell>
        <mxCell id="w_5GZXR-7Djm66WTPlX2-168" value="Mapping" style="verticalLabelPosition=bottom;aspect=fixed;html=1;verticalAlign=top;strokeColor=none;align=center;outlineConnect=0;shape=mxgraph.citrix.process;opacity=30;dashed=1;" vertex="1" parent="1">
          <mxGeometry x="932.36" y="1233" width="31.87" height="38" as="geometry" />
        </mxCell>
        <mxCell id="w_5GZXR-7Djm66WTPlX2-209" style="edgeStyle=orthogonalEdgeStyle;rounded=0;orthogonalLoop=1;jettySize=auto;html=1;startArrow=none;startFill=0;" edge="1" parent="1" source="w_5GZXR-7Djm66WTPlX2-170" target="w_5GZXR-7Djm66WTPlX2-208">
          <mxGeometry relative="1" as="geometry" />
        </mxCell>
        <mxCell id="w_5GZXR-7Djm66WTPlX2-170" value="Notyfication" style="verticalLabelPosition=bottom;aspect=fixed;html=1;verticalAlign=top;strokeColor=none;align=center;outlineConnect=0;shape=mxgraph.citrix.process;opacity=30;dashed=1;" vertex="1" parent="1">
          <mxGeometry x="932.36" y="1323" width="33.55" height="40" as="geometry" />
        </mxCell>
        <mxCell id="w_5GZXR-7Djm66WTPlX2-177" style="edgeStyle=orthogonalEdgeStyle;rounded=0;orthogonalLoop=1;jettySize=auto;html=1;startArrow=none;startFill=0;" edge="1" parent="1" source="w_5GZXR-7Djm66WTPlX2-171" target="w_5GZXR-7Djm66WTPlX2-172">
          <mxGeometry relative="1" as="geometry" />
        </mxCell>
        <mxCell id="w_5GZXR-7Djm66WTPlX2-178" style="edgeStyle=orthogonalEdgeStyle;rounded=0;orthogonalLoop=1;jettySize=auto;html=1;startArrow=none;startFill=0;" edge="1" parent="1" source="w_5GZXR-7Djm66WTPlX2-171" target="w_5GZXR-7Djm66WTPlX2-168">
          <mxGeometry relative="1" as="geometry" />
        </mxCell>
        <mxCell id="w_5GZXR-7Djm66WTPlX2-171" value="SmartTwin BackEnd" style="verticalLabelPosition=bottom;aspect=fixed;html=1;verticalAlign=top;strokeColor=none;align=center;outlineConnect=0;shape=mxgraph.citrix.web_server;gradientColor=none;opacity=30;dashed=1;" vertex="1" parent="1">
          <mxGeometry x="776.11" y="1169" width="42.5" height="50" as="geometry" />
        </mxCell>
        <mxCell id="w_5GZXR-7Djm66WTPlX2-175" style="edgeStyle=orthogonalEdgeStyle;rounded=0;orthogonalLoop=1;jettySize=auto;html=1;startArrow=none;startFill=0;" edge="1" parent="1" source="w_5GZXR-7Djm66WTPlX2-172" target="w_5GZXR-7Djm66WTPlX2-173">
          <mxGeometry relative="1" as="geometry" />
        </mxCell>
        <mxCell id="w_5GZXR-7Djm66WTPlX2-179" style="edgeStyle=orthogonalEdgeStyle;rounded=0;orthogonalLoop=1;jettySize=auto;html=1;entryX=0.75;entryY=1;entryDx=0;entryDy=0;startArrow=none;startFill=0;" edge="1" parent="1" source="w_5GZXR-7Djm66WTPlX2-172" target="w_5GZXR-7Djm66WTPlX2-176">
          <mxGeometry relative="1" as="geometry" />
        </mxCell>
        <mxCell id="w_5GZXR-7Djm66WTPlX2-172" value="MappingSetting" style="verticalLabelPosition=bottom;aspect=fixed;html=1;verticalAlign=top;strokeColor=none;align=center;outlineConnect=0;shape=mxgraph.citrix.process;opacity=30;dashed=1;" vertex="1" parent="1">
          <mxGeometry x="581.39" y="1174" width="33.54" height="40" as="geometry" />
        </mxCell>
        <mxCell id="w_5GZXR-7Djm66WTPlX2-173" value="SmartTwinDB" style="shadow=0;dashed=0;html=1;strokeColor=none;labelPosition=center;verticalLabelPosition=bottom;verticalAlign=top;outlineConnect=0;align=center;shape=mxgraph.office.databases.database;fillColor=#DA4026;opacity=30;" vertex="1" parent="1">
          <mxGeometry x="583.16" y="1317" width="30" height="50" as="geometry" />
        </mxCell>
        <mxCell id="w_5GZXR-7Djm66WTPlX2-181" style="edgeStyle=orthogonalEdgeStyle;rounded=0;orthogonalLoop=1;jettySize=auto;html=1;startArrow=none;startFill=0;" edge="1" parent="1" source="w_5GZXR-7Djm66WTPlX2-176" target="w_5GZXR-7Djm66WTPlX2-145">
          <mxGeometry relative="1" as="geometry">
            <Array as="points">
              <mxPoint x="588" y="990" />
              <mxPoint x="588" y="990" />
            </Array>
          </mxGeometry>
        </mxCell>
        <mxCell id="w_5GZXR-7Djm66WTPlX2-186" value="Edtlj" style="edgeLabel;html=1;align=center;verticalAlign=middle;resizable=0;points=[];" vertex="1" connectable="0" parent="w_5GZXR-7Djm66WTPlX2-181">
          <mxGeometry x="-0.8351" y="1" relative="1" as="geometry">
            <mxPoint y="-1" as="offset" />
          </mxGeometry>
        </mxCell>
        <mxCell id="w_5GZXR-7Djm66WTPlX2-187" value="MetadataUpdateEvent" style="edgeLabel;html=1;align=center;verticalAlign=middle;resizable=0;points=[];fontColor=#0000CC;" vertex="1" connectable="0" parent="w_5GZXR-7Djm66WTPlX2-181">
          <mxGeometry x="-0.8351" y="-1" relative="1" as="geometry">
            <mxPoint y="-1" as="offset" />
          </mxGeometry>
        </mxCell>
        <mxCell id="w_5GZXR-7Djm66WTPlX2-176" value="" style="aspect=fixed;perimeter=ellipsePerimeter;html=1;align=center;shadow=0;dashed=0;fontColor=#4277BB;labelBackgroundColor=#ffffff;fontSize=12;spacingTop=3;image;image=img/lib/ibm/blockchain/message_bus.svg;strokeWidth=5;gradientColor=none;opacity=30;" vertex="1" parent="1">
          <mxGeometry x="572.1600000000001" y="1080" width="36" height="36" as="geometry" />
        </mxCell>
        <mxCell id="w_5GZXR-7Djm66WTPlX2-190" value="Redis&lt;br&gt;Last Values Storage" style="aspect=fixed;html=1;points=[];align=center;image;fontSize=12;image=img/lib/mscae/Cache_Redis_Product.svg;" vertex="1" parent="1">
          <mxGeometry x="820.16" y="1333" width="50" height="42" as="geometry" />
        </mxCell>
        <mxCell id="w_5GZXR-7Djm66WTPlX2-196" style="edgeStyle=orthogonalEdgeStyle;rounded=0;orthogonalLoop=1;jettySize=auto;html=1;startArrow=none;startFill=0;" edge="1" parent="1" source="w_5GZXR-7Djm66WTPlX2-192" target="w_5GZXR-7Djm66WTPlX2-145">
          <mxGeometry relative="1" as="geometry">
            <Array as="points">
              <mxPoint x="1025" y="910" />
              <mxPoint x="885" y="910" />
            </Array>
          </mxGeometry>
        </mxCell>
        <mxCell id="w_5GZXR-7Djm66WTPlX2-192" value="" style="aspect=fixed;perimeter=ellipsePerimeter;html=1;align=center;shadow=0;dashed=0;fontColor=#4277BB;labelBackgroundColor=#ffffff;fontSize=12;spacingTop=3;image;image=img/lib/ibm/blockchain/message_bus.svg;strokeWidth=5;gradientColor=none;opacity=30;" vertex="1" parent="1">
          <mxGeometry x="1008.16" y="1080" width="40" height="40" as="geometry" />
        </mxCell>
        <mxCell id="w_5GZXR-7Djm66WTPlX2-204" style="edgeStyle=orthogonalEdgeStyle;rounded=0;orthogonalLoop=1;jettySize=auto;html=1;startArrow=none;startFill=0;" edge="1" parent="1" source="w_5GZXR-7Djm66WTPlX2-198" target="w_5GZXR-7Djm66WTPlX2-202">
          <mxGeometry relative="1" as="geometry" />
        </mxCell>
        <mxCell id="w_5GZXR-7Djm66WTPlX2-198" value="ClickHouse&lt;br&gt;History Storage" style="shadow=0;dashed=0;html=1;strokeColor=none;labelPosition=center;verticalLabelPosition=top;verticalAlign=bottom;outlineConnect=0;align=center;shape=mxgraph.office.databases.database;fillColor=#DA4026;opacity=30;" vertex="1" parent="1">
          <mxGeometry x="1093.16" y="870" width="40" height="60" as="geometry" />
        </mxCell>
        <mxCell id="w_5GZXR-7Djm66WTPlX2-205" style="edgeStyle=orthogonalEdgeStyle;rounded=0;orthogonalLoop=1;jettySize=auto;html=1;startArrow=none;startFill=0;" edge="1" parent="1" source="w_5GZXR-7Djm66WTPlX2-202" target="w_5GZXR-7Djm66WTPlX2-203">
          <mxGeometry relative="1" as="geometry" />
        </mxCell>
        <mxCell id="w_5GZXR-7Djm66WTPlX2-202" value="LoadHistory" style="verticalLabelPosition=bottom;aspect=fixed;html=1;verticalAlign=top;strokeColor=none;align=center;outlineConnect=0;shape=mxgraph.citrix.process;opacity=30;dashed=1;" vertex="1" parent="1">
          <mxGeometry x="1096.2900000000002" y="1078" width="31.87" height="38" as="geometry" />
        </mxCell>
        <mxCell id="w_5GZXR-7Djm66WTPlX2-206" style="edgeStyle=orthogonalEdgeStyle;rounded=0;orthogonalLoop=1;jettySize=auto;html=1;startArrow=none;startFill=0;" edge="1" parent="1" source="w_5GZXR-7Djm66WTPlX2-203" target="w_5GZXR-7Djm66WTPlX2-170">
          <mxGeometry relative="1" as="geometry" />
        </mxCell>
        <mxCell id="w_5GZXR-7Djm66WTPlX2-203" value="Replay" style="verticalLabelPosition=bottom;aspect=fixed;html=1;verticalAlign=top;strokeColor=none;align=center;outlineConnect=0;shape=mxgraph.citrix.process;opacity=30;dashed=1;" vertex="1" parent="1">
          <mxGeometry x="1096.65" y="1325" width="29.35" height="35" as="geometry" />
        </mxCell>
        <mxCell id="w_5GZXR-7Djm66WTPlX2-211" style="edgeStyle=orthogonalEdgeStyle;rounded=0;orthogonalLoop=1;jettySize=auto;html=1;startArrow=none;startFill=0;" edge="1" parent="1" source="w_5GZXR-7Djm66WTPlX2-208" target="w_5GZXR-7Djm66WTPlX2-210">
          <mxGeometry relative="1" as="geometry" />
        </mxCell>
        <mxCell id="w_5GZXR-7Djm66WTPlX2-208" value="SignalRHub" style="aspect=fixed;html=1;points=[];align=center;image;fontSize=12;image=img/lib/mscae/SignalR.svg;strokeWidth=5;gradientColor=none;opacity=30;dashed=1;" vertex="1" parent="1">
          <mxGeometry x="934.13" y="1422" width="30" height="30" as="geometry" />
        </mxCell>
        <mxCell id="w_5GZXR-7Djm66WTPlX2-213" style="edgeStyle=orthogonalEdgeStyle;rounded=0;orthogonalLoop=1;jettySize=auto;html=1;startArrow=none;startFill=0;" edge="1" parent="1" source="w_5GZXR-7Djm66WTPlX2-210" target="w_5GZXR-7Djm66WTPlX2-212">
          <mxGeometry relative="1" as="geometry" />
        </mxCell>
        <mxCell id="w_5GZXR-7Djm66WTPlX2-210" value="" style="shadow=0;dashed=0;html=1;strokeColor=none;fillColor=#4495D1;labelPosition=center;verticalLabelPosition=bottom;verticalAlign=top;align=center;outlineConnect=0;shape=mxgraph.veeam.2d.web_ui;opacity=30;" vertex="1" parent="1">
          <mxGeometry x="693.76" y="1415" width="44.8" height="44.8" as="geometry" />
        </mxCell>
        <mxCell id="w_5GZXR-7Djm66WTPlX2-214" style="edgeStyle=orthogonalEdgeStyle;rounded=0;orthogonalLoop=1;jettySize=auto;html=1;startArrow=none;startFill=0;" edge="1" parent="1" source="w_5GZXR-7Djm66WTPlX2-212" target="w_5GZXR-7Djm66WTPlX2-190">
          <mxGeometry relative="1" as="geometry" />
        </mxCell>
        <mxCell id="w_5GZXR-7Djm66WTPlX2-212" value="SmartTwin &lt;br&gt;Api Controller" style="verticalLabelPosition=top;aspect=fixed;html=1;verticalAlign=bottom;strokeColor=none;align=center;outlineConnect=0;shape=mxgraph.citrix.process;opacity=30;dashed=1;labelPosition=center;" vertex="1" parent="1">
          <mxGeometry x="699.16" y="1333.08" width="34.33" height="40.92" as="geometry" />
        </mxCell>
      </root>
    </mxGraphModel>
  </diagram>
</mxfile>
